<svg xmlns="http://www.w3.org/2000/svg" viewBox="0 0 820 310">
  <defs>
    <style>
      .bg { fill: #242933; }
      .key-alpha { fill: #3B4252; stroke: #4C566A; stroke-width: 1; }
      .key-mod { fill: #434C5E; stroke: #4C566A; stroke-width: 1; }
      .key-thumb-outer { fill: #2E3440; stroke: #4C566A; stroke-width: 1; }
      .key-thumb-inner { fill: #3B4252; stroke: #4C566A; stroke-width: 1; }
      .text-primary { fill: #ECEFF4; font-family: -apple-system, BlinkMacSystemFont, 'Segoe UI', sans-serif; }
      .text-hold { fill: #88C0D0; font-family: -apple-system, BlinkMacSystemFont, 'Segoe UI', sans-serif; }
      .text-layer { fill: #A3BE8C; font-family: -apple-system, BlinkMacSystemFont, 'Segoe UI', sans-serif; }
      .title { fill: #D8DEE9; font-family: -apple-system, BlinkMacSystemFont, 'Segoe UI', sans-serif; font-size: 14px; font-weight: 600; }
    </style>
  </defs>

  <!-- Background -->
  <rect class="bg" width="820" height="310"/>

  <!-- Title -->
  <text class="title" x="410" y="18" text-anchor="middle">Layer 0: Base (Colemak-DH)</text>

  <!-- ===== LEFT HAND ===== -->

  <!-- Row 0 -->
  <!-- Col 0: X=10, Y=30+0=30 - LCTL_T(KC_TAB) -->
  <rect class="key-mod" x="10" y="30" width="44" height="44" rx="6"/>
  <text class="text-primary" x="32" y="48" text-anchor="middle" font-size="10">TAB</text>
  <text class="text-hold" x="32" y="62" text-anchor="middle" font-size="8">CTRL</text>

  <!-- Col 1: X=60, Y=30-5=25 - Q -->
  <rect class="key-alpha" x="60" y="25" width="44" height="44" rx="6"/>
  <text class="text-primary" x="82" y="53" text-anchor="middle" font-size="14">Q</text>

  <!-- Col 2: X=110, Y=30-15=15 - W -->
  <rect class="key-alpha" x="110" y="15" width="44" height="44" rx="6"/>
  <text class="text-primary" x="132" y="43" text-anchor="middle" font-size="14">W</text>

  <!-- Col 3: X=160, Y=30-20=10 - F -->
  <rect class="key-alpha" x="160" y="10" width="44" height="44" rx="6"/>
  <text class="text-primary" x="182" y="38" text-anchor="middle" font-size="14">F</text>

  <!-- Col 4: X=210, Y=30-10=20 - P -->
  <rect class="key-alpha" x="210" y="20" width="44" height="44" rx="6"/>
  <text class="text-primary" x="232" y="48" text-anchor="middle" font-size="14">P</text>

  <!-- Col 5: X=260, Y=30-5=25 - B -->
  <rect class="key-alpha" x="260" y="25" width="44" height="44" rx="6"/>
  <text class="text-primary" x="282" y="53" text-anchor="middle" font-size="14">B</text>

  <!-- Row 1 -->
  <!-- Col 0: X=10, Y=80+0=80 - LALT_T(KC_ESC) -->
  <rect class="key-mod" x="10" y="80" width="44" height="44" rx="6"/>
  <text class="text-primary" x="32" y="98" text-anchor="middle" font-size="10">ESC</text>
  <text class="text-hold" x="32" y="112" text-anchor="middle" font-size="8">ALT</text>

  <!-- Col 1: X=60, Y=80-5=75 - A -->
  <rect class="key-alpha" x="60" y="75" width="44" height="44" rx="6"/>
  <text class="text-primary" x="82" y="103" text-anchor="middle" font-size="14">A</text>

  <!-- Col 2: X=110, Y=80-15=65 - R -->
  <rect class="key-alpha" x="110" y="65" width="44" height="44" rx="6"/>
  <text class="text-primary" x="132" y="93" text-anchor="middle" font-size="14">R</text>

  <!-- Col 3: X=160, Y=80-20=60 - S -->
  <rect class="key-alpha" x="160" y="60" width="44" height="44" rx="6"/>
  <text class="text-primary" x="182" y="88" text-anchor="middle" font-size="14">S</text>

  <!-- Col 4: X=210, Y=80-10=70 - T -->
  <rect class="key-alpha" x="210" y="70" width="44" height="44" rx="6"/>
  <text class="text-primary" x="232" y="98" text-anchor="middle" font-size="14">T</text>

  <!-- Col 5: X=260, Y=80-5=75 - G -->
  <rect class="key-alpha" x="260" y="75" width="44" height="44" rx="6"/>
  <text class="text-primary" x="282" y="103" text-anchor="middle" font-size="14">G</text>

  <!-- Row 2 -->
  <!-- Col 0: X=10, Y=130+0=130 - SC_LSPO -->
  <rect class="key-mod" x="10" y="130" width="44" height="44" rx="6"/>
  <text class="text-primary" x="32" y="148" text-anchor="middle" font-size="12">(</text>
  <text class="text-hold" x="32" y="162" text-anchor="middle" font-size="8">SHIFT</text>

  <!-- Col 1: X=60, Y=130-5=125 - Z -->
  <rect class="key-alpha" x="60" y="125" width="44" height="44" rx="6"/>
  <text class="text-primary" x="82" y="153" text-anchor="middle" font-size="14">Z</text>

  <!-- Col 2: X=110, Y=130-15=115 - X -->
  <rect class="key-alpha" x="110" y="115" width="44" height="44" rx="6"/>
  <text class="text-primary" x="132" y="143" text-anchor="middle" font-size="14">X</text>

  <!-- Col 3: X=160, Y=130-20=110 - C -->
  <rect class="key-alpha" x="160" y="110" width="44" height="44" rx="6"/>
  <text class="text-primary" x="182" y="138" text-anchor="middle" font-size="14">C</text>

  <!-- Col 4: X=210, Y=130-10=120 - D -->
  <rect class="key-alpha" x="210" y="120" width="44" height="44" rx="6"/>
  <text class="text-primary" x="232" y="148" text-anchor="middle" font-size="14">D</text>

  <!-- Col 5: X=260, Y=130-5=125 - V -->
  <rect class="key-alpha" x="260" y="125" width="44" height="44" rx="6"/>
  <text class="text-primary" x="282" y="153" text-anchor="middle" font-size="14">V</text>

  <!-- Left Thumbs -->
  <!-- Thumb 0: X=160, Y=210 - LT(_NAV, KC_MINS) -->
  <rect class="key-thumb-outer" x="160" y="210" width="44" height="44" rx="6"/>
  <rect class="key-thumb-inner" x="164" y="214" width="36" height="24" rx="4"/>
  <text class="text-primary" x="182" y="230" text-anchor="middle" font-size="12">-</text>
  <text class="text-layer" x="182" y="248" text-anchor="middle" font-size="8">NAV</text>

  <!-- Thumb 1: X=210, Y=210 - KC_SPC -->
  <rect class="key-thumb-outer" x="210" y="210" width="44" height="44" rx="6"/>
  <rect class="key-thumb-inner" x="214" y="214" width="36" height="24" rx="4"/>
  <text class="text-primary" x="232" y="230" text-anchor="middle" font-size="10">SPC</text>

  <!-- Thumb 2: X=260, Y=210 - LGUI_T(KC_EQL) -->
  <rect class="key-thumb-outer" x="260" y="210" width="44" height="44" rx="6"/>
  <rect class="key-thumb-inner" x="264" y="214" width="36" height="24" rx="4"/>
  <text class="text-primary" x="282" y="230" text-anchor="middle" font-size="12">=</text>
  <text class="text-layer" x="282" y="248" text-anchor="middle" font-size="8">CMD</text>

  <!-- ===== RIGHT HAND ===== -->

  <!-- Row 0 -->
  <!-- Col 0: X=460, Y=30-5=25 - J -->
  <rect class="key-alpha" x="460" y="25" width="44" height="44" rx="6"/>
  <text class="text-primary" x="482" y="53" text-anchor="middle" font-size="14">J</text>

  <!-- Col 1: X=510, Y=30-10=20 - L -->
  <rect class="key-alpha" x="510" y="20" width="44" height="44" rx="6"/>
  <text class="text-primary" x="532" y="48" text-anchor="middle" font-size="14">L</text>

  <!-- Col 2: X=560, Y=30-20=10 - U -->
  <rect class="key-alpha" x="560" y="10" width="44" height="44" rx="6"/>
  <text class="text-primary" x="582" y="38" text-anchor="middle" font-size="14">U</text>

  <!-- Col 3: X=610, Y=30-15=15 - Y -->
  <rect class="key-alpha" x="610" y="15" width="44" height="44" rx="6"/>
  <text class="text-primary" x="632" y="43" text-anchor="middle" font-size="14">Y</text>

  <!-- Col 4: X=660, Y=30-5=25 - ; -->
  <rect class="key-alpha" x="660" y="25" width="44" height="44" rx="6"/>
  <text class="text-primary" x="682" y="53" text-anchor="middle" font-size="14">;</text>

  <!-- Col 5: X=710, Y=30+0=30 - \ -->
  <rect class="key-alpha" x="710" y="30" width="44" height="44" rx="6"/>
  <text class="text-primary" x="732" y="58" text-anchor="middle" font-size="14">\</text>

  <!-- Row 1 -->
  <!-- Col 0: X=460, Y=80-5=75 - M -->
  <rect class="key-alpha" x="460" y="75" width="44" height="44" rx="6"/>
  <text class="text-primary" x="482" y="103" text-anchor="middle" font-size="14">M</text>

  <!-- Col 1: X=510, Y=80-10=70 - N -->
  <rect class="key-alpha" x="510" y="70" width="44" height="44" rx="6"/>
  <text class="text-primary" x="532" y="98" text-anchor="middle" font-size="14">N</text>

  <!-- Col 2: X=560, Y=80-20=60 - E -->
  <rect class="key-alpha" x="560" y="60" width="44" height="44" rx="6"/>
  <text class="text-primary" x="582" y="88" text-anchor="middle" font-size="14">E</text>

  <!-- Col 3: X=610, Y=80-15=65 - I -->
  <rect class="key-alpha" x="610" y="65" width="44" height="44" rx="6"/>
  <text class="text-primary" x="632" y="93" text-anchor="middle" font-size="14">I</text>

  <!-- Col 4: X=660, Y=80-5=75 - O -->
  <rect class="key-alpha" x="660" y="75" width="44" height="44" rx="6"/>
  <text class="text-primary" x="682" y="103" text-anchor="middle" font-size="14">O</text>

  <!-- Col 5: X=710, Y=80+0=80 - ' -->
  <rect class="key-alpha" x="710" y="80" width="44" height="44" rx="6"/>
  <text class="text-primary" x="732" y="108" text-anchor="middle" font-size="14">'</text>

  <!-- Row 2 -->
  <!-- Col 0: X=460, Y=130-5=125 - K -->
  <rect class="key-alpha" x="460" y="125" width="44" height="44" rx="6"/>
  <text class="text-primary" x="482" y="153" text-anchor="middle" font-size="14">K</text>

  <!-- Col 1: X=510, Y=130-10=120 - H -->
  <rect class="key-alpha" x="510" y="120" width="44" height="44" rx="6"/>
  <text class="text-primary" x="532" y="148" text-anchor="middle" font-size="14">H</text>

  <!-- Col 2: X=560, Y=130-20=110 - HYPR_T(KC_COMM) -->
  <rect class="key-mod" x="560" y="110" width="44" height="44" rx="6"/>
  <text class="text-primary" x="582" y="128" text-anchor="middle" font-size="12">,</text>
  <text class="text-hold" x="582" y="142" text-anchor="middle" font-size="7">HYPER</text>

  <!-- Col 3: X=610, Y=130-15=115 - MEH_T(KC_DOT) -->
  <rect class="key-mod" x="610" y="115" width="44" height="44" rx="6"/>
  <text class="text-primary" x="632" y="133" text-anchor="middle" font-size="12">.</text>
  <text class="text-hold" x="632" y="147" text-anchor="middle" font-size="8">MEH</text>

  <!-- Col 4: X=660, Y=130-5=125 - / -->
  <rect class="key-alpha" x="660" y="125" width="44" height="44" rx="6"/>
  <text class="text-primary" x="682" y="153" text-anchor="middle" font-size="14">/</text>

  <!-- Col 5: X=710, Y=130+0=130 - SC_RSPC -->
  <rect class="key-mod" x="710" y="130" width="44" height="44" rx="6"/>
  <text class="text-primary" x="732" y="148" text-anchor="middle" font-size="12">)</text>
  <text class="text-hold" x="732" y="162" text-anchor="middle" font-size="8">SHIFT</text>

  <!-- Right Thumbs -->
  <!-- Thumb 0: X=460, Y=210 - RSFT_T(KC_ENT) -->
  <rect class="key-thumb-outer" x="460" y="210" width="44" height="44" rx="6"/>
  <rect class="key-thumb-inner" x="464" y="214" width="36" height="24" rx="4"/>
  <text class="text-primary" x="482" y="230" text-anchor="middle" font-size="9">ENT</text>
  <text class="text-layer" x="482" y="248" text-anchor="middle" font-size="8">SHIFT</text>

  <!-- Thumb 1: X=510, Y=210 - LT(_SYM, KC_BSPC) -->
  <rect class="key-thumb-outer" x="510" y="210" width="44" height="44" rx="6"/>
  <rect class="key-thumb-inner" x="514" y="214" width="36" height="24" rx="4"/>
  <text class="text-primary" x="532" y="230" text-anchor="middle" font-size="9">BSPC</text>
  <text class="text-layer" x="532" y="248" text-anchor="middle" font-size="8">SYM</text>

  <!-- Thumb 2: X=560, Y=210 - QK_REP -->
  <rect class="key-thumb-outer" x="560" y="210" width="44" height="44" rx="6"/>
  <rect class="key-thumb-inner" x="564" y="214" width="36" height="24" rx="4"/>
  <text class="text-primary" x="582" y="230" text-anchor="middle" font-size="8">REP</text>

  <!-- Attribution -->
  <text fill="#4C566A" x="410" y="300" text-anchor="middle" font-family="-apple-system, BlinkMacSystemFont, 'Segoe UI', sans-serif" font-size="9">Nordic.nvim color scheme</text>
</svg>