<svg xmlns="http://www.w3.org/2000/svg" viewBox="0 0 820 310">
  <defs>
    <style>
      .bg { fill: #242933; }
      .key-alpha { fill: #3B4252; stroke: #4C566A; stroke-width: 1; }
      .key-mod { fill: #434C5E; stroke: #4C566A; stroke-width: 1; }
      .key-layer { fill: #4C566A; stroke: #4C566A; stroke-width: 1; }
      .key-thumb-outer { fill: #2E3440; stroke: #4C566A; stroke-width: 1; }
      .key-thumb-inner { fill: #3B4252; stroke: #4C566A; stroke-width: 1; }
      .key-transparent { fill: #2E3440; stroke: #4C566A; stroke-width: 1; stroke-dasharray: 4,2; }
      .key-disabled { fill: #1E222A; stroke: #4C566A; stroke-width: 1; opacity: 0.5; }
      .text-primary { fill: #ECEFF4; font-family: -apple-system, BlinkMacSystemFont, 'Segoe UI', sans-serif; }
      .text-hold { fill: #88C0D0; font-family: -apple-system, BlinkMacSystemFont, 'Segoe UI', sans-serif; }
      .text-layer { fill: #A3BE8C; font-family: -apple-system, BlinkMacSystemFont, 'Segoe UI', sans-serif; }
      .text-muted { fill: #4C566A; font-family: -apple-system, BlinkMacSystemFont, 'Segoe UI', sans-serif; }
      .title { fill: #D8DEE9; font-family: -apple-system, BlinkMacSystemFont, 'Segoe UI', sans-serif; font-size: 14px; font-weight: 600; }
    </style>
  </defs>

  <!-- Background -->
  <rect class="bg" width="820" height="310"/>

  <!-- Title -->
  <text class="title" x="410" y="18" text-anchor="middle">Layer 2: Numbers &amp; Symbols</text>

  <!-- ===== LEFT HAND ===== -->

  <!-- Row 0 -->
  <!-- Col 0: X=10, Y=30+0=30 - DF(_SYM) -->
  <rect class="key-layer" x="10" y="30" width="44" height="44" rx="6"/>
  <text class="text-layer" x="32" y="48" text-anchor="middle" font-size="8">LOCK</text>
  <text class="text-layer" x="32" y="60" text-anchor="middle" font-size="8">SYM</text>

  <!-- Col 1: X=60, Y=30-5=25 - / -->
  <rect class="key-alpha" x="60" y="25" width="44" height="44" rx="6"/>
  <text class="text-primary" x="82" y="53" text-anchor="middle" font-size="14">/</text>

  <!-- Col 2: X=110, Y=30-15=15 - 7 -->
  <rect class="key-alpha" x="110" y="15" width="44" height="44" rx="6"/>
  <text class="text-primary" x="132" y="43" text-anchor="middle" font-size="14">7</text>

  <!-- Col 3: X=160, Y=30-20=10 - 8 -->
  <rect class="key-alpha" x="160" y="10" width="44" height="44" rx="6"/>
  <text class="text-primary" x="182" y="38" text-anchor="middle" font-size="14">8</text>

  <!-- Col 4: X=210, Y=30-10=20 - 9 -->
  <rect class="key-alpha" x="210" y="20" width="44" height="44" rx="6"/>
  <text class="text-primary" x="232" y="48" text-anchor="middle" font-size="14">9</text>

  <!-- Col 5: X=260, Y=30-5=25 - - -->
  <rect class="key-alpha" x="260" y="25" width="44" height="44" rx="6"/>
  <text class="text-primary" x="282" y="53" text-anchor="middle" font-size="14">-</text>

  <!-- Row 1 -->
  <!-- Col 0: X=10, Y=80+0=80 - DF(_BASE) -->
  <rect class="key-layer" x="10" y="80" width="44" height="44" rx="6"/>
  <text class="text-layer" x="32" y="98" text-anchor="middle" font-size="8">LOCK</text>
  <text class="text-layer" x="32" y="110" text-anchor="middle" font-size="8">BASE</text>

  <!-- Col 1: X=60, Y=80-5=75 - * -->
  <rect class="key-alpha" x="60" y="75" width="44" height="44" rx="6"/>
  <text class="text-primary" x="82" y="103" text-anchor="middle" font-size="14">*</text>

  <!-- Col 2: X=110, Y=80-15=65 - 4 -->
  <rect class="key-alpha" x="110" y="65" width="44" height="44" rx="6"/>
  <text class="text-primary" x="132" y="93" text-anchor="middle" font-size="14">4</text>

  <!-- Col 3: X=160, Y=80-20=60 - 5 -->
  <rect class="key-alpha" x="160" y="60" width="44" height="44" rx="6"/>
  <text class="text-primary" x="182" y="88" text-anchor="middle" font-size="14">5</text>

  <!-- Col 4: X=210, Y=80-10=70 - 6 -->
  <rect class="key-alpha" x="210" y="70" width="44" height="44" rx="6"/>
  <text class="text-primary" x="232" y="98" text-anchor="middle" font-size="14">6</text>

  <!-- Col 5: X=260, Y=80-5=75 - 0 -->
  <rect class="key-alpha" x="260" y="75" width="44" height="44" rx="6"/>
  <text class="text-primary" x="282" y="103" text-anchor="middle" font-size="14">0</text>

  <!-- Row 2 -->
  <!-- Col 0: X=10, Y=130+0=130 - XXXXXXX -->
  <rect class="key-disabled" x="10" y="130" width="44" height="44" rx="6"/>

  <!-- Col 1: X=60, Y=130-5=125 - XXXXXXX -->
  <rect class="key-disabled" x="60" y="125" width="44" height="44" rx="6"/>

  <!-- Col 2: X=110, Y=130-15=115 - 1 -->
  <rect class="key-alpha" x="110" y="115" width="44" height="44" rx="6"/>
  <text class="text-primary" x="132" y="143" text-anchor="middle" font-size="14">1</text>

  <!-- Col 3: X=160, Y=130-20=110 - 2 -->
  <rect class="key-alpha" x="160" y="110" width="44" height="44" rx="6"/>
  <text class="text-primary" x="182" y="138" text-anchor="middle" font-size="14">2</text>

  <!-- Col 4: X=210, Y=130-10=120 - 3 -->
  <rect class="key-alpha" x="210" y="120" width="44" height="44" rx="6"/>
  <text class="text-primary" x="232" y="148" text-anchor="middle" font-size="14">3</text>

  <!-- Col 5: X=260, Y=130-5=125 - = -->
  <rect class="key-alpha" x="260" y="125" width="44" height="44" rx="6"/>
  <text class="text-primary" x="282" y="153" text-anchor="middle" font-size="14">=</text>

  <!-- Left Thumbs -->
  <!-- Thumb 0: X=160, Y=210 - KC_DOT -->
  <rect class="key-thumb-outer" x="160" y="210" width="44" height="44" rx="6"/>
  <rect class="key-thumb-inner" x="164" y="214" width="36" height="24" rx="4"/>
  <text class="text-primary" x="182" y="230" text-anchor="middle" font-size="14">.</text>

  <!-- Thumb 1: X=210, Y=210 - G(KC_SPC) -->
  <rect class="key-thumb-outer" x="210" y="210" width="44" height="44" rx="6"/>
  <rect class="key-thumb-inner" x="214" y="214" width="36" height="24" rx="4"/>
  <text class="text-primary" x="232" y="230" text-anchor="middle" font-size="8">⌘SPC</text>

  <!-- Thumb 2: X=260, Y=210 - KC_LSFT -->
  <rect class="key-thumb-outer" x="260" y="210" width="44" height="44" rx="6"/>
  <rect class="key-thumb-inner" x="264" y="214" width="36" height="24" rx="4"/>
  <text class="text-primary" x="282" y="230" text-anchor="middle" font-size="8">SHIFT</text>

  <!-- ===== RIGHT HAND ===== -->

  <!-- Row 0 - Symbols -->
  <!-- Col 0: X=460, Y=30-5=25 - ^ -->
  <rect class="key-alpha" x="460" y="25" width="44" height="44" rx="6"/>
  <text class="text-primary" x="482" y="53" text-anchor="middle" font-size="14">^</text>

  <!-- Col 1: X=510, Y=30-10=20 - @ -->
  <rect class="key-alpha" x="510" y="20" width="44" height="44" rx="6"/>
  <text class="text-primary" x="532" y="48" text-anchor="middle" font-size="14">@</text>

  <!-- Col 2: X=560, Y=30-20=10 - * -->
  <rect class="key-alpha" x="560" y="10" width="44" height="44" rx="6"/>
  <text class="text-primary" x="582" y="38" text-anchor="middle" font-size="14">*</text>

  <!-- Col 3: X=610, Y=30-15=15 - # -->
  <rect class="key-alpha" x="610" y="15" width="44" height="44" rx="6"/>
  <text class="text-primary" x="632" y="43" text-anchor="middle" font-size="14">#</text>

  <!-- Col 4: X=660, Y=30-5=25 - & -->
  <rect class="key-alpha" x="660" y="25" width="44" height="44" rx="6"/>
  <text class="text-primary" x="682" y="53" text-anchor="middle" font-size="14">&amp;</text>

  <!-- Col 5: X=710, Y=30+0=30 - $ -->
  <rect class="key-alpha" x="710" y="30" width="44" height="44" rx="6"/>
  <text class="text-primary" x="732" y="58" text-anchor="middle" font-size="14">$</text>

  <!-- Row 1 - Brackets -->
  <!-- Col 0: X=460, Y=80-5=75 - < -->
  <rect class="key-alpha" x="460" y="75" width="44" height="44" rx="6"/>
  <text class="text-primary" x="482" y="103" text-anchor="middle" font-size="14">&lt;</text>

  <!-- Col 1: X=510, Y=80-10=70 - [ -->
  <rect class="key-alpha" x="510" y="70" width="44" height="44" rx="6"/>
  <text class="text-primary" x="532" y="98" text-anchor="middle" font-size="14">[</text>

  <!-- Col 2: X=560, Y=80-20=60 - { -->
  <rect class="key-alpha" x="560" y="60" width="44" height="44" rx="6"/>
  <text class="text-primary" x="582" y="88" text-anchor="middle" font-size="14">{</text>

  <!-- Col 3: X=610, Y=80-15=65 - ( -->
  <rect class="key-alpha" x="610" y="65" width="44" height="44" rx="6"/>
  <text class="text-primary" x="632" y="93" text-anchor="middle" font-size="14">(</text>

  <!-- Col 4: X=660, Y=80-5=75 - ` -->
  <rect class="key-alpha" x="660" y="75" width="44" height="44" rx="6"/>
  <text class="text-primary" x="682" y="103" text-anchor="middle" font-size="14">`</text>

  <!-- Col 5: X=710, Y=80+0=80 - ' -->
  <rect class="key-alpha" x="710" y="80" width="44" height="44" rx="6"/>
  <text class="text-primary" x="732" y="108" text-anchor="middle" font-size="14">'</text>

  <!-- Row 2 - Math operators -->
  <!-- Col 0: X=460, Y=130-5=125 - ~ -->
  <rect class="key-alpha" x="460" y="125" width="44" height="44" rx="6"/>
  <text class="text-primary" x="482" y="153" text-anchor="middle" font-size="14">~</text>

  <!-- Col 1: X=510, Y=130-10=120 - - -->
  <rect class="key-alpha" x="510" y="120" width="44" height="44" rx="6"/>
  <text class="text-primary" x="532" y="148" text-anchor="middle" font-size="14">-</text>

  <!-- Col 2: X=560, Y=130-20=110 - _ -->
  <rect class="key-alpha" x="560" y="110" width="44" height="44" rx="6"/>
  <text class="text-primary" x="582" y="138" text-anchor="middle" font-size="14">_</text>

  <!-- Col 3: X=610, Y=130-15=115 - = -->
  <rect class="key-alpha" x="610" y="115" width="44" height="44" rx="6"/>
  <text class="text-primary" x="632" y="143" text-anchor="middle" font-size="14">=</text>

  <!-- Col 4: X=660, Y=130-5=125 - + -->
  <rect class="key-alpha" x="660" y="125" width="44" height="44" rx="6"/>
  <text class="text-primary" x="682" y="153" text-anchor="middle" font-size="14">+</text>

  <!-- Col 5: X=710, Y=130+0=130 - % -->
  <rect class="key-alpha" x="710" y="130" width="44" height="44" rx="6"/>
  <text class="text-primary" x="732" y="158" text-anchor="middle" font-size="14">%</text>

  <!-- Right Thumbs -->
  <!-- Thumb 0: X=460, Y=210 - KC_ENT -->
  <rect class="key-thumb-outer" x="460" y="210" width="44" height="44" rx="6"/>
  <rect class="key-thumb-inner" x="464" y="214" width="36" height="24" rx="4"/>
  <text class="text-primary" x="482" y="230" text-anchor="middle" font-size="9">ENT</text>

  <!-- Thumb 1: X=510, Y=210 - KC_BSPC -->
  <rect class="key-thumb-outer" x="510" y="210" width="44" height="44" rx="6"/>
  <rect class="key-thumb-inner" x="514" y="214" width="36" height="24" rx="4"/>
  <text class="text-primary" x="532" y="230" text-anchor="middle" font-size="8">BSPC</text>

  <!-- Thumb 2: X=560, Y=210 - Transparent -->
  <rect class="key-transparent" x="560" y="210" width="44" height="44" rx="6"/>
  <text class="text-muted" x="582" y="238" text-anchor="middle" font-size="14">▽</text>

  <!-- Attribution -->
  <text fill="#4C566A" x="410" y="300" text-anchor="middle" font-family="-apple-system, BlinkMacSystemFont, 'Segoe UI', sans-serif" font-size="9">Nordic.nvim color scheme</text>
</svg>